<svg width="272" height="250" viewBox="0 0 272 250" fill="none" xmlns="http://www.w3.org/2000/svg">
<path d="M193.598 0.0195312C219.712 -0.0192587 240.934 21.1417 240.935 47.2881V134.572C240.934 142.999 239.806 151.163 237.693 158.921C236.494 163.324 234.977 167.597 233.17 171.713C223.865 192.902 206.842 209.935 185.658 219.252C181.625 221.026 177.441 222.52 173.131 223.71C167.946 225.141 162.578 226.132 157.07 226.641C158.32 224.831 159.506 222.954 160.625 221.016L163.959 215.241C164.018 215.108 164.08 214.973 164.142 214.835C164.169 214.774 164.196 214.712 164.224 214.65C164.261 214.567 164.299 214.482 164.338 214.396C164.706 213.589 165.069 212.785 165.424 211.989C167.697 206.885 169.694 202.029 171.446 197.474C180.615 173.642 183.065 158.027 183.087 157.885L165.645 187.422L164.75 188.922L149.823 214.778C149.529 215.288 149.221 215.805 148.915 216.305C148.718 216.627 148.517 216.949 148.315 217.268C146.076 220.799 143.563 224.061 140.818 227.041C136.254 231.996 131.052 236.174 125.417 239.517C104.732 251.788 78.201 252.828 55.8896 239.947L56.1377 239.517L82.9053 193.153C86.7745 186.452 91.6032 180.647 97.1152 175.813C95.9976 175.929 85.3616 177.967 56.6123 213.759L56.5801 213.802L56.4248 213.993L56.4385 213.663C25.1498 196.444 3.2838 164.217 0.553711 126.677C0.188854 124.473 3.79607e-05 122.209 0 119.901V26.5986C22.7381 26.5986 41.1708 45.0304 41.1709 67.7686C41.171 45.0304 59.5949 26.5986 82.333 26.5986V77.7139C82.3328 88.7841 77.9626 98.8355 70.8545 106.234L69.5762 107.505C63.0535 113.728 54.4913 117.833 44.9932 118.71H124.948L154.895 66.7432C125.874 59.4372 104.39 33.1686 104.389 1.88086V0L193.598 0.0195312ZM241.987 182.229L242.71 183.507L242.704 183.529C243.272 184.418 243.832 185.319 244.364 186.241L271.383 233.036C246.73 247.269 216.925 244.503 195.547 228.374C195.685 228.304 195.826 228.234 195.964 228.164L195.489 227.837C195.523 227.819 219.193 215.667 229.097 191.177C232.122 183.696 233.817 176.917 234.618 173.188L235.064 170.966C235.157 170.462 235.199 170.185 235.201 170.173L241.987 182.229ZM171.211 12.0586C165.466 12.0595 160.811 16.7171 160.811 22.4619C160.811 28.2064 165.466 32.8624 171.211 32.8633C176.956 32.8633 181.615 28.207 181.615 22.4619C181.615 16.7165 176.956 12.0586 171.211 12.0586Z" fill="#4E8295"/>
</svg>
